<?xml version="1.0" encoding="UTF-8"?>
<svg version="1.1" xmlns="http://www.w3.org/2000/svg" width="500" height="500">
<path d="M0 0 C1.37468697 -0.00855011 1.37468697 -0.00855011 2.77714539 -0.01727295 C4.71087512 -0.02666691 6.64462047 -0.03323445 8.57836914 -0.03710938 C11.46596118 -0.04672267 14.35281153 -0.07776178 17.24023438 -0.109375 C34.1508689 -0.20673885 50.33692797 1.90851505 66.76171875 5.953125 C67.80980713 6.20916504 68.85789551 6.46520508 69.93774414 6.72900391 C79.65521322 9.18370984 88.941826 12.38184185 98.19921875 16.203125 C99.31321045 16.65510254 99.31321045 16.65510254 100.44970703 17.11621094 C124.23057879 26.85528951 145.51923291 40.82411849 164.67797852 57.87280273 C166.2244334 59.22517518 167.80369561 60.52840664 169.39453125 61.828125 C171.64115006 63.7305543 173.51223743 65.51926266 175.38671875 67.765625 C177.41580333 70.1587904 179.46617509 72.48293638 181.6328125 74.75390625 C220.15536052 115.17742181 240.33554029 171.78809578 240.51171875 227.140625 C240.51433716 227.93014557 240.51695557 228.71966614 240.51965332 229.53311157 C240.5248962 244.38899314 239.09105549 258.60562494 236.19921875 273.203125 C235.9669458 274.41621338 235.9669458 274.41621338 235.72998047 275.65380859 C229.27461675 308.57401894 214.29749479 339.52093095 194.19921875 366.203125 C193.49023438 367.14542969 192.78125 368.08773438 192.05078125 369.05859375 C186.81619139 375.77809788 181.05107896 382.02300947 175.19921875 388.203125 C174.32265625 389.13382812 173.44609375 390.06453125 172.54296875 391.0234375 C165.62126358 398.16908019 158.14298368 404.24238166 150.19921875 410.203125 C149.24917969 410.925 148.29914063 411.646875 147.3203125 412.390625 C129.129892 425.94738671 108.65824009 436.84853737 87.19921875 444.203125 C86.44946777 444.46432129 85.6997168 444.72551758 84.92724609 444.99462891 C70.04550366 450.08732411 54.7233686 452.84092029 39.19921875 455.203125 C38.4609082 455.3172876 37.72259766 455.4314502 36.96191406 455.54907227 C14.11131693 458.58725003 -10.34931898 456.71846174 -32.80078125 452.203125 C-33.744375 452.01588867 -34.68796875 451.82865234 -35.66015625 451.63574219 C-76.13861848 443.35995489 -114.60812073 423.83348847 -144.16894531 394.80419922 C-145.94694986 393.05971182 -147.74513466 391.33731338 -149.54296875 389.61328125 C-179.43441773 360.65982481 -200.27452287 322.93392223 -210.11328125 282.578125 C-210.34354004 281.63904297 -210.57379883 280.69996094 -210.81103516 279.73242188 C-214.54722574 263.55962333 -216.30547058 247.63554322 -216.19189453 231.04907227 C-216.17580568 228.26984474 -216.19186347 225.49207489 -216.2109375 222.71289062 C-216.23164719 205.91206017 -214.33035272 189.4132911 -210.05078125 173.140625 C-209.79184082 172.141521 -209.53290039 171.14241699 -209.26611328 170.11303711 C-199.69553554 134.09894733 -182.21495217 101.48526206 -156.80078125 74.203125 C-155.58739906 72.81167834 -154.37880322 71.41603861 -153.17578125 70.015625 C-146.66580993 62.58415089 -139.54022723 56.34234743 -131.80078125 50.203125 C-130.79917969 49.39617187 -129.79757813 48.58921875 -128.765625 47.7578125 C-93.20078062 19.43745225 -45.80337735 0.22813705 0 0 Z " fill="#6896DD" transform="translate(240.80078125,24.796875)"/>
<path d="M0 0 C0.76570312 0.00451172 1.53140625 0.00902344 2.3203125 0.01367188 C4.17191037 0.02524436 6.02346688 0.04316845 7.875 0.0625 C8.38546875 1.06667969 8.8959375 2.07085937 9.421875 3.10546875 C19.4662439 22.25497448 33.61356305 36.11879224 54.52734375 42.92578125 C62.90221493 45.29772463 71.22810681 45.74427677 79.875 46.0625 C78.54324869 52.89466166 76.5343795 59.0740731 73.875 65.5 C73.47837158 66.45865967 73.08174316 67.41731934 72.6730957 68.4050293 C52.27452122 116.59261894 12.10998311 155.48287657 -36.19384766 175.31591797 C-38.49970943 176.2434233 -40.81061002 177.15651104 -43.125 178.0625 C-44.3521875 178.5471875 -45.579375 179.031875 -46.84375 179.53125 C-62.47711892 185.41169152 -79.38988691 189.3135267 -96.125 189.0625 C-96.33253906 187.96035156 -96.54007812 186.85820312 -96.75390625 185.72265625 C-101.77874829 160.42410907 -113.02018494 138.9596022 -134.875 124.3125 C-136.61580573 123.21445331 -138.36233384 122.12510017 -140.125 121.0625 C-138.45575085 115.32445606 -135.81640814 110.18340159 -133.125 104.875 C-132.39132202 103.41839966 -132.39132202 103.41839966 -131.64282227 101.93237305 C-128.10928073 94.94221758 -124.53282299 87.9736838 -120.82617188 81.07348633 C-118.64809664 77.01454161 -116.57624045 72.93696752 -114.62890625 68.76171875 C-114.20939697 67.89184326 -113.7898877 67.02196777 -113.35766602 66.12573242 C-112.56068393 64.4684706 -111.78961783 62.79838344 -111.05053711 61.11450195 C-109.42626344 57.80075565 -108.27867764 55.60562706 -104.86499023 53.99853516 C-103.14746899 53.50087882 -101.41463254 53.05356363 -99.67138672 52.65527344 C-83.49189128 48.88884823 -69.78351089 36.70621412 -61.125 23.0625 C-59.20918651 19.47586196 -57.61608095 15.84256476 -56.125 12.0625 C-55.41325847 10.28365481 -54.70098052 8.50502419 -53.98828125 6.7265625 C-53.36702954 5.17193811 -52.74588304 3.61727166 -52.125 2.0625 C-51.1777002 2.03744385 -50.23040039 2.0123877 -49.25439453 1.98657227 C-45.69457063 1.89067231 -42.13486792 1.79149235 -38.57519531 1.69018555 C-37.0430043 1.64723143 -35.51077746 1.60553423 -33.97851562 1.56518555 C-26.39668361 1.364752 -18.86684509 1.12709123 -11.32470703 0.26977539 C-7.55120924 -0.08579615 -3.78658725 -0.04363975 0 0 Z " fill="#D2D3D8" transform="translate(367.125,265.9375)"/>
<path d="M0 0 C0.43570313 0.92941406 0.87140625 1.85882813 1.3203125 2.81640625 C4.60213146 9.674602 7.77460569 15.39225977 13 21 C13 21.66 13 22.32 13 23 C13.59167969 23.26554687 14.18335938 23.53109375 14.79296875 23.8046875 C17.0568542 25.03079183 18.4889407 26.32240115 20.3125 28.125 C28.77202912 35.68323349 41.07127548 42.18059174 52.46875 43.2265625 C54.99987754 43.51419063 56.72657775 43.84288358 59 45 C60.15917969 47.1550293 60.15917969 47.1550293 61.046875 49.88671875 C61.37606934 50.88171387 61.70526367 51.87670898 62.04443359 52.90185547 C62.35977051 53.92424316 62.67510742 54.94663086 63 56 C63.2882666 56.92312988 63.5765332 57.84625977 63.87353516 58.79736328 C64.73457237 61.62849379 65.56011556 64.46775644 66.375 67.3125 C66.82117676 68.85587036 66.82117676 68.85587036 67.27636719 70.43041992 C70.04817002 80.06619041 72.69636059 89.73486325 75.30273438 99.41650391 C76.52547237 103.94697081 77.76324942 108.47334178 79 113 C77.56333984 113.185625 77.56333984 113.185625 76.09765625 113.375 C57.71279449 116.0870997 41.5707439 124.24489559 29.6171875 138.80078125 C21.50506896 149.83247868 17.23720227 161.57678636 15 175 C-27.57 174.67 -70.14 174.34 -114 174 C-110.25920977 117.88814661 -88.04486751 66.28880554 -45.3359375 28.65234375 C-42.60390102 26.36758758 -39.82247772 24.17199941 -37 22 C-36.46068848 21.57895996 -35.92137695 21.15791992 -35.36572266 20.72412109 C-27.81421778 14.85644113 -20.01230908 9.63270349 -11.75 4.8125 C-10.51636719 4.08957764 -10.51636719 4.08957764 -9.2578125 3.35205078 C-8.10152344 2.69245361 -8.10152344 2.69245361 -6.921875 2.01953125 C-6.23706055 1.62870361 -5.55224609 1.23787598 -4.84667969 0.83520508 C-3 0 -3 0 0 0 Z " fill="#D2D3D8" transform="translate(163,71)"/>
<path d="M0 0 C5.63370064 0.09728076 10.79732842 2.18906121 16.0546875 4.046875 C17.76205078 4.64761841 17.76205078 4.64761841 19.50390625 5.26049805 C49.77208207 16.2168602 75.46991255 32.51579777 98.1796875 55.296875 C98.911875 55.98265625 99.6440625 56.6684375 100.3984375 57.375 C111.93523468 68.35866307 121.32780675 81.47893638 129.1796875 95.296875 C129.51258789 95.88049805 129.84548828 96.46412109 130.18847656 97.06542969 C136.1796875 107.6338122 136.1796875 107.6338122 136.1796875 111.296875 C134.61734375 111.59078125 134.61734375 111.59078125 133.0234375 111.890625 C118.47485174 114.84174335 105.31758014 120.23684294 94.1796875 130.296875 C93.5196875 130.85375 92.8596875 131.410625 92.1796875 131.984375 C78.33738644 144.52896033 71.5312461 163.49469074 70.59375 181.73828125 C70.53151245 182.83517273 70.53151245 182.83517273 70.46801758 183.95422363 C70.36759701 185.73486956 70.27302482 187.51584374 70.1796875 189.296875 C64.90041432 189.58688986 59.62088281 189.87145255 54.34106445 190.15136719 C52.55192496 190.24694191 50.76285893 190.34390371 48.97387695 190.44238281 C38.02868653 191.04380062 27.14291408 191.44727079 16.1796875 191.296875 C15.76009766 189.46576172 15.76009766 189.46576172 15.33203125 187.59765625 C12.01808975 173.74653764 7.86974863 162.42200393 -2.31640625 152.00390625 C-3.8203125 150.296875 -3.8203125 150.296875 -3.8203125 148.296875 C-4.408125 148.02359375 -4.9959375 147.7503125 -5.6015625 147.46875 C-7.75512806 146.3313034 -9.4379969 145.08244825 -11.3203125 143.546875 C-17.28964667 138.98340271 -24.22378679 135.2892853 -31.47265625 133.2890625 C-35.85968087 130.67834773 -36.27262944 128.5042372 -37.56860352 123.71972656 C-37.81666748 122.69331055 -38.06473145 121.66689453 -38.3203125 120.609375 C-38.90160038 118.42297931 -39.48365321 116.23678688 -40.06640625 114.05078125 C-40.35499512 112.92945801 -40.64358398 111.80813477 -40.94091797 110.65283203 C-42.31249923 105.4185855 -43.85008496 100.23573909 -45.3828125 95.046875 C-45.95844187 93.06643779 -46.53396371 91.08596933 -47.109375 89.10546875 C-48.24178857 85.23411902 -49.40430349 81.37373224 -50.59375 77.51953125 C-50.87404053 76.60655273 -51.15433105 75.69357422 -51.44311523 74.75292969 C-51.97037766 73.0420524 -52.50337228 71.33292673 -53.04321289 69.62597656 C-54.23827052 65.74234718 -55.15856522 62.41365808 -54.8203125 58.296875 C-54.02109375 58.01714844 -53.221875 57.73742187 -52.3984375 57.44921875 C-32.1710682 50.06575413 -19.41574091 39.39524577 -9.8203125 20.296875 C-9.28792969 19.31074219 -8.75554687 18.32460937 -8.20703125 17.30859375 C-6.70506509 14.0465771 -5.92571199 10.99591101 -5.1953125 7.484375 C-3.70427528 0.38992371 -3.70427528 0.38992371 0 0 Z " fill="#D2D3D8" transform="translate(299.8203125,54.703125)"/>
<path d="M0 0 C24.39315412 -0.13062737 48.77851613 0.01795687 73.16863251 0.40571976 C75.15897767 0.43705101 77.14934357 0.46705505 79.13970947 0.49703979 C95.77355398 0.75148594 112.38286449 1.20401783 129 2 C129.23138168 2.54227737 129.46276337 3.08455475 129.70115662 3.64326477 C138.55797409 24.3621093 148.39800265 39.93323369 169.51171875 49.609375 C175.24200982 51.87220771 180.97895287 53.70134278 187 55 C185.5518455 58.82644949 183.80988022 62.37703558 181.875 65.98046875 C181.2552832 67.13667725 180.63556641 68.29288574 179.99707031 69.48413086 C179.33155037 70.71867898 178.665857 71.95313363 178 73.1875 C177.32122206 74.44991515 176.64251151 75.71236653 175.96386719 76.97485352 C162.60276615 101.79798851 162.60276615 101.79798851 157 111 C155.78441406 110.84144531 154.56882813 110.68289063 153.31640625 110.51953125 C126.20888551 107.53818056 102.45679502 111.15669637 80.484375 127.90234375 C76.39875574 131.35199397 72.65499736 135.10133615 69 139 C40.39904547 114.90342115 20.9908806 84.26112797 9 49 C8.75620605 48.28779297 8.51241211 47.57558594 8.26123047 46.84179688 C4.00152389 34.25508919 1.04440829 21.81357998 0.421875 8.5234375 C0.37981934 7.69932373 0.33776367 6.87520996 0.29443359 6.02612305 C0.19247837 4.01760518 0.09569656 2.00882579 0 0 Z " fill="#D2D3D8" transform="translate(50,267)"/>
<path d="M0 0 C6.74967275 4.89320538 11.04966529 10.68938057 15 18 C15.43699219 18.80824219 15.87398438 19.61648437 16.32421875 20.44921875 C21.1991614 31.3451432 20.41477689 45.74994737 17 57 C11.51661446 70.81324191 2.72795008 80.36202947 -10.97265625 86.28515625 C-24.4103975 91.33109139 -37.63171179 91.70761927 -51 86 C-64.9209275 78.78377118 -72.76173437 68.77745375 -78.375 54.3125 C-82.35038869 41.41754174 -80.66239846 27.8747139 -74.421875 15.99609375 C-66.69888791 3.21141917 -56.16797117 -4.35671533 -42 -9 C-27.23457338 -12.57228063 -12.16780006 -8.79139481 0 0 Z " fill="#DAF8CD" transform="translate(277,213)"/>
<path d="M0 0 C4.45214183 8.06303593 6.06293123 17.07200633 8 26 C8.17096191 26.78197754 8.34192383 27.56395508 8.51806641 28.36962891 C13.52685156 52.60216269 13.21482992 80.85037097 8 105 C-15.03330455 105.83395894 -15.03330455 105.83395894 -24 101 C-24.86753906 100.54109375 -25.73507812 100.0821875 -26.62890625 99.609375 C-41.13861562 91.39225196 -48.9582313 80.15978994 -53.54418945 64.09350586 C-55.85258943 53.49118672 -55.0785533 40.57535281 -50 31 C-49.55269531 30.14277344 -49.10539062 29.28554687 -48.64453125 28.40234375 C-40.82170126 14.49742074 -29.46425327 5.36429986 -14 1 C-9.28556455 -0.10927893 -4.81894482 -0.08308526 0 0 Z " fill="#DAF8CC" transform="translate(445,186)"/>
<path d="M0 0 C16.85938872 -0.71650871 32.03459262 4.86918206 44.9453125 15.8046875 C56.23810906 26.65236653 63.51172254 40.48543903 64.1953125 56.2421875 C52.82532979 56.69497442 42.32136978 55.51619156 31.1953125 53.2421875 C30.36725098 53.07589844 29.53918945 52.90960938 28.68603516 52.73828125 C3.23427002 47.50547974 -21.70840902 37.5927316 -42.8046875 22.2421875 C-42.10544052 17.22536787 -38.85058171 15.33894359 -35.01171875 12.40625 C-23.87454097 4.89102894 -13.44580087 0.85589287 0 0 Z " fill="#DAF8CC" transform="translate(181.8046875,399.7578125)"/>
<path d="M0 0 C2.32725729 0.01857645 4.65412059 0.02050651 6.98144531 0.02026367 C8.48405289 0.02517024 9.98665782 0.03099475 11.48925781 0.0378418 C12.1736795 0.03895462 12.8581012 0.04006744 13.56326294 0.04121399 C17.52847795 0.0802154 21.27698341 0.44981524 25.16894531 1.20581055 C25.16894531 12.85067418 19.26586125 25.18448874 11.13378906 33.5378418 C3.93049717 39.65276354 -3.87205128 43.39098853 -12.83105469 46.20581055 C-13.82105469 46.53581055 -14.81105469 46.86581055 -15.83105469 47.20581055 C-32.0454025 48.10564628 -45.14084576 45.54779623 -58.08105469 34.95581055 C-63.54119353 29.90012643 -68.6478564 23.39887438 -70.83105469 16.20581055 C-70.37744141 14.05297852 -70.37744141 14.05297852 -69.83105469 12.20581055 C-59.93847867 9.29820022 -50.03970926 6.39173305 -40.01855469 3.95581055 C-38.81585938 3.6619043 -37.61316406 3.36799805 -36.37402344 3.06518555 C-24.27846546 0.59188446 -12.30473123 -0.10161565 0 0 Z " fill="#DAF8CC" transform="translate(251.8310546875,48.794189453125)"/>
<path d="M0 0 C3.63 0 7.26 0 11 0 C9.66824869 6.83216166 7.6593795 13.0115731 5 19.4375 C4.60337158 20.39615967 4.20674316 21.35481934 3.7980957 22.3425293 C-16.60047878 70.53011894 -56.76501689 109.42037657 -105.06884766 129.25341797 C-107.37470943 130.1809233 -109.68561002 131.09401104 -112 132 C-113.2271875 132.4846875 -114.454375 132.969375 -115.71875 133.46875 C-131.17960033 139.28429921 -148.42072457 143.56200934 -165 143 C-165.33 141.02 -165.66 139.04 -166 137 C-165.67 137.66 -165.34 138.32 -165 139 C-145.46981263 136.32441426 -127.04108177 133.16551331 -109 125 C-107.48520828 124.35481093 -105.96950407 123.71176196 -104.453125 123.0703125 C-58.93160753 103.55219459 -20.90988442 67.19371268 -1.44140625 21.328125 C-0.24045775 18.2348808 0.89752949 15.12945368 2 12 C2.58010501 10.45711567 3.16296735 8.91526185 3.75 7.375 C4.53266232 5.26181172 5.28739036 3.13782892 6 1 C4.02 1 2.04 1 0 1 C0 0.67 0 0.34 0 0 Z " fill="#A9BAE5" transform="translate(436,312)"/>
<path d="M0 0 C0.495 1.98 0.495 1.98 1 4 C0.030625 4.44988281 -0.93875 4.89976563 -1.9375 5.36328125 C-17.62580965 12.81913114 -31.01989934 22.53281174 -44 34 C-44.85980469 34.72574219 -45.71960938 35.45148438 -46.60546875 36.19921875 C-69.84311294 56.18580938 -85.75091331 83.89878618 -97 112 C-97.43183594 113.04929687 -97.86367187 114.09859375 -98.30859375 115.1796875 C-101.17777541 122.52568567 -102.84638942 130.19566228 -104.52856445 137.88330078 C-104.84563682 139.30692449 -105.17779922 140.72726257 -105.52416992 142.14404297 C-106.93279527 148.02800883 -107.573255 153.85090508 -108.0625 159.875 C-108.21681956 161.72683472 -108.37423385 163.57841488 -108.53515625 165.4296875 C-108.63389038 166.63987549 -108.63389038 166.63987549 -108.73461914 167.87451172 C-109 170 -109 170 -110 173 C-99.44 173 -88.88 173 -78 173 C-78 173.33 -78 173.66 -78 174 C-89.88 174 -101.76 174 -114 174 C-110.25920977 117.88814661 -88.04486751 66.28880554 -45.3359375 28.65234375 C-42.60390102 26.36758758 -39.82247772 24.17199941 -37 22 C-36.46068848 21.57895996 -35.92137695 21.15791992 -35.36572266 20.72412109 C-27.81421778 14.85644113 -20.01230908 9.63270349 -11.75 4.8125 C-10.51636719 4.08957764 -10.51636719 4.08957764 -9.2578125 3.35205078 C-8.10152344 2.69245361 -8.10152344 2.69245361 -6.921875 2.01953125 C-6.23706055 1.62870361 -5.55224609 1.23787598 -4.84667969 0.83520508 C-3 0 -3 0 0 0 Z " fill="#AABBE5" transform="translate(163,71)"/>
<path d="M0 0 C6.83674624 -0.58102659 12.47659561 1.48897051 18.875 3.75 C20.01324219 4.15049561 21.15148437 4.55099121 22.32421875 4.96362305 C52.59239457 15.9199852 78.29022505 32.21892277 101 55 C101.7321875 55.68578125 102.464375 56.3715625 103.21875 57.078125 C114.75554718 68.06178807 124.14811925 81.18206138 132 95 C132.33290039 95.58362305 132.66580078 96.16724609 133.00878906 96.76855469 C139 107.3369372 139 107.3369372 139 111 C136.36 111.33 133.72 111.66 131 112 C131.99 111.34 132.98 110.68 134 110 C124.08037497 90.68838957 111.95895494 73.69606287 97 58 C96.23429687 57.16984375 95.46859375 56.3396875 94.6796875 55.484375 C79.31894381 39.34257654 59.85220506 27.46032638 39.8828125 17.91113281 C37.85714964 16.93087169 35.8508629 15.91608885 33.84375 14.8984375 C24.04092187 9.98990618 13.60312763 7.51779954 3 5 C1.66604916 4.66914648 0.33232511 4.33734063 -1 4 C-0.67 2.68 -0.34 1.36 0 0 Z " fill="#AABBE6" transform="translate(297,55)"/>
<path d="M0 0 C1.65 0 3.3 0 5 0 C4.95359375 0.63421875 4.9071875 1.2684375 4.859375 1.921875 C4.32429157 15.75760364 8.01400383 29.82562767 12 43 C12.52013672 44.8253125 12.52013672 44.8253125 13.05078125 46.6875 C15.83998151 56.26297619 19.48955114 65.11353499 24 74 C24.47808105 74.94987793 24.47808105 74.94987793 24.96582031 75.91894531 C34.64685833 95.02041514 47.20648303 111.6058684 62 127 C62.72960937 127.75925781 63.45921875 128.51851562 64.2109375 129.30078125 C66.74045638 131.87832897 68.97824672 133.98549781 72 136 C70.68 136.99 69.36 137.98 68 139 C40.96216464 112.95005632 21.16255986 84.76597866 9 49 C8.75620605 48.28779297 8.51241211 47.57558594 8.26123047 46.84179688 C3.00035875 31.29681664 0.54282203 16.34081494 0 0 Z " fill="#ABBCE5" transform="translate(50,267)"/>
<path d="M0 0 C0.33 0.66 0.66 1.32 1 2 C2.66246892 2.67706669 4.33045907 3.34056441 6 4 C8.80659565 5.49908734 11.55232374 7.10491254 14.3125 8.6875 C42.43550672 24.48767676 72.8942791 32.62048307 105 35 C105.33 34.01 105.66 33.02 106 32 C106 33.98 106 35.96 106 38 C94.63001729 38.45278692 84.12605728 37.27400406 73 35 C72.17193848 34.83371094 71.34387695 34.66742188 70.49072266 34.49609375 C45.03895752 29.26329224 20.09627848 19.3505441 -1 4 C-0.67 2.68 -0.34 1.36 0 0 Z " fill="#BDE2C8" transform="translate(140,418)"/>
<path d="M0 0 C2.64 0 5.28 0 8 0 C12.45214183 8.06303593 14.06293123 17.07200633 16 26 C16.17096191 26.78197754 16.34192383 27.56395508 16.51806641 28.36962891 C21.52685156 52.60216269 21.21482992 80.85037097 16 105 C15.01 105 14.02 105 13 105 C13.14447983 103.49986903 13.29067215 101.99990298 13.4375 100.5 C13.51871094 99.6646875 13.59992188 98.829375 13.68359375 97.96875 C13.92134845 95.73796516 14.20335116 93.51182588 14.50708008 91.2890625 C17.96262358 63.66989002 14.70237616 34.65834132 6.61669922 8.20629883 C5.95020306 5.8218468 5.45817765 3.43229783 5 1 C3.35 1 1.7 1 0 1 C0 0.67 0 0.34 0 0 Z " fill="#BCE2C7" transform="translate(437,186)"/>
<path d="M0 0 C2.32725729 0.01857645 4.65412059 0.02050651 6.98144531 0.02026367 C8.48405289 0.02517024 9.98665782 0.03099475 11.48925781 0.0378418 C12.1736795 0.03895462 12.8581012 0.04006744 13.56326294 0.04121399 C17.52847795 0.0802154 21.27698341 0.44981524 25.16894531 1.20581055 C25.16894531 3.18581055 25.16894531 5.16581055 25.16894531 7.20581055 C24.67394531 5.72081055 24.67394531 5.72081055 24.16894531 4.20581055 C-12.19021231 3.94473847 -12.19021231 3.94473847 -47.83105469 10.20581055 C-49.60034751 10.67545968 -51.36987749 11.14421635 -53.13964844 11.61206055 C-56.19983058 12.43454149 -59.24593529 13.29023774 -62.28417969 14.19018555 C-65.13272399 15.00584801 -67.91734219 15.68631142 -70.83105469 16.20581055 C-70.50105469 14.88581055 -70.17105469 13.56581055 -69.83105469 12.20581055 C-59.93847867 9.29820022 -50.03970926 6.39173305 -40.01855469 3.95581055 C-38.81585938 3.6619043 -37.61316406 3.36799805 -36.37402344 3.06518555 C-24.27846546 0.59188446 -12.30473123 -0.10161565 0 0 Z " fill="#BCE1C8" transform="translate(251.8310546875,48.794189453125)"/>
<path d="M0 0 C0.92643311 -0.00064453 1.85286621 -0.00128906 2.80737305 -0.00195312 C9.28408717 0.04805572 15.45972597 0.53759206 21.75 2.1875 C21.42 3.1775 21.09 4.1675 20.75 5.1875 C19.53441406 5.02894531 18.31882812 4.87039063 17.06640625 4.70703125 C-7.32692338 2.02419386 -26.61363424 5.15509568 -48.25 16.1875 C-48.25 15.5275 -48.25 14.8675 -48.25 14.1875 C-40.64866487 9.78615222 -33.17131117 5.84232178 -24.75 3.25 C-24.10482422 3.05124268 -23.45964844 2.85248535 -22.79492188 2.64770508 C-15.19366451 0.43394696 -7.85533253 -0.00563359 0 0 Z " fill="#BCC6E3" transform="translate(186.25,372.8125)"/>
<path d="M0 0 C0.66 0.33 1.32 0.66 2 1 C1.5875 1.4640625 1.175 1.928125 0.75 2.40625 C-12.23925725 17.9469685 -16.26233566 35.18480963 -17 55 C-20.63 55 -24.26 55 -28 55 C-28 54.67 -28 54.34 -28 54 C-25.36 54 -22.72 54 -20 54 C-20.04640625 53.319375 -20.0928125 52.63875 -20.140625 51.9375 C-20.86314791 32.532599 -12.89583316 14.26773031 0 0 Z " fill="#BAC5E3" transform="translate(387,189)"/>
<path d="M0 0 C0.495 0.99 0.495 0.99 1 2 C-7.79903586 16.80813352 -20.85088223 27.08047541 -37 33 C-37.99 33 -38.98 33 -40 33 C-40.33 33.66 -40.66 34.32 -41 35 C-41 33.35 -41 31.7 -41 30 C-40.20078125 29.72027344 -39.4015625 29.44054687 -38.578125 29.15234375 C-22.30435283 23.21203489 -9.33226009 14.81276189 0 0 Z " fill="#B7C3E3" transform="translate(286,83)"/>
<path d="M0 0 C0.33 0.66 0.66 1.32 1 2 C1.71671875 2.26941406 2.4334375 2.53882813 3.171875 2.81640625 C6.70589568 4.29542319 9.37070136 6.47087374 12.25 8.9375 C13.0994519 9.65969727 13.0994519 9.65969727 13.96606445 10.39648438 C20.22611605 15.86018867 25.38875878 22.08313817 30 29 C29.625 31.1875 29.625 31.1875 29 33 C28.70609375 32.48953125 28.4121875 31.9790625 28.109375 31.453125 C20.82001706 19.63933799 10.77597205 11.09899024 -1 4 C-0.67 2.68 -0.34 1.36 0 0 Z " fill="#B7C3E3" transform="translate(228,383)"/>
<path d="M0 0 C0.69609375 0.51046875 0.69609375 0.51046875 1.40625 1.03125 C13.69232663 9.64984107 26.33377701 15.03555067 41 18 C41 18.66 41 19.32 41 20 C25.57077653 19.60893673 11.12170035 12.52052736 0 2 C0 1.34 0 0.68 0 0 Z " fill="#BAC5E3" transform="translate(181,98)"/>
<path d="M0 0 C5.61 0 11.22 0 17 0 C18.27875 2.413125 19.5575 4.82625 20.875 7.3125 C25.02060448 14.89815674 29.84833773 20.93823676 36 27 C32.09030078 27 31.4740993 25.90683689 28.75 23.1875 C22.67591779 16.91524218 18.23850912 10.0962728 15 2 C10.05 1.67 5.1 1.34 0 1 C0 0.67 0 0.34 0 0 Z " fill="#BCC7E3" transform="translate(358,266)"/>
<path d="M0 0 C-0.33 0.99 -0.66 1.98 -1 3 C-2.86978516 2.76990234 -2.86978516 2.76990234 -4.77734375 2.53515625 C-10.36346727 1.91447586 -15.94866968 1.66413379 -21.5625 1.4375 C-22.57119141 1.39431641 -23.57988281 1.35113281 -24.61914062 1.30664062 C-27.07932575 1.20170382 -29.53959175 1.09954299 -32 1 C-32 0.67 -32 0.34 -32 0 C-29.18766245 -0.1698931 -26.37518151 -0.33598232 -23.5625 -0.5 C-22.77939453 -0.54769531 -21.99628906 -0.59539062 -21.18945312 -0.64453125 C-5.90894725 -1.52488961 -5.90894725 -1.52488961 0 0 Z " fill="#ABBCE3" transform="translate(208,375)"/>
<path d="M0 0 C0.33 0.99 0.66 1.98 1 3 C-6.72888819 4.95403042 -14.05042008 5.22428282 -22 5 C-22 4.34 -22 3.68 -22 3 C-22.66 2.67 -23.32 2.34 -24 2 C-23.18917969 2.02320312 -22.37835938 2.04640625 -21.54296875 2.0703125 C-14.10477802 2.19154029 -7.25861997 1.62918925 0 0 Z " fill="#759BE6" transform="translate(244,113)"/>
<path d="M0 0 C5.61 0 11.22 0 17 0 C17.66 1.65 18.32 3.3 19 5 C18.01 4.67 17.02 4.34 16 4 C15.67 3.34 15.34 2.68 15 2 C12.45058627 1.68758629 9.99638487 1.48696579 7.4375 1.375 C6.72658203 1.33632813 6.01566406 1.29765625 5.28320312 1.2578125 C3.52257575 1.16328217 1.76132272 1.08054183 0 1 C0 0.67 0 0.34 0 0 Z " fill="#A9BAE0" transform="translate(358,266)"/>
<path d="M0 0 C0.66 0 1.32 0 2 0 C1.34 3.3 0.68 6.6 0 10 C-2 7 -2 7 -1.6875 3.875 C-1 1 -1 1 0 0 Z " fill="#B3C1E3" transform="translate(371,218)"/>
</svg>
